<svg xmlns="http://www.w3.org/2000/svg" viewBox="0 0 284 109"><path fill="#638e43" fill-rule="evenodd" d="M38,93 L39,92 L40,93 L40,94 L39,95 L38,94Z M56,49 L57,48 L59,48 L60,49 L58,51Z M62,58 L63,57 L63,54 L64,53 L64,51 L65,50 L66,50 L66,48 L73,41 L74,41 L76,39 L79,39 L80,40 L84,40 L85,41 L86,41 L89,44 L90,44 L92,46 L93,46 L94,47 L94,50 L96,52 L96,54 L97,55 L97,62 L96,63 L78,63 L77,64 L73,64 L72,63 L67,63 L66,64 L65,64 L65,65 L64,66 L63,66 L62,65Z M142,8 L139,11 L139,12 L138,13 L138,15 L137,16 L137,22 L138,23 L138,28 L145,35 L145,70 L144,71 L144,83 L143,84 L143,86 L142,87 L142,98 L143,98 L145,100 L153,100 L155,98 L156,98 L158,96 L158,92 L156,90 L153,90 L151,88 L151,85 L152,84 L152,73 L153,72 L153,35 L152,34 L152,22 L151,21 L151,20 L152,19 L152,16 L151,15 L151,12 L149,9 L148,9 L147,8Z M117,8 L114,10 L114,11 L113,12 L113,13 L111,16 L111,25 L112,26 L112,28 L113,29 L112,30 L113,29 L115,31 L116,31 L118,33 L118,43 L119,44 L119,67 L118,68 L118,76 L117,77 L117,86 L116,87 L116,90 L115,91 L115,96 L119,100 L121,100 L122,101 L124,101 L125,100 L128,100 L129,99 L129,98 L132,96 L132,93 L130,90 L129,91 L128,90 L127,90 L125,88 L125,85 L126,84 L126,62 L127,61 L127,43 L126,42 L126,24 L125,23 L125,14 L123,12 L123,9 L122,8Z M13,11 L13,13 L12,14 L12,17 L13,18 L13,31 L14,32 L14,38 L15,39 L15,41 L16,42 L16,50 L17,51 L17,54 L18,55 L18,59 L19,60 L19,64 L20,65 L20,69 L21,70 L21,73 L22,74 L22,76 L23,77 L23,79 L24,80 L24,82 L26,84 L26,87 L27,88 L27,90 L28,91 L28,92 L30,94 L30,95 L32,98 L33,98 L35,100 L40,100 L40,99 L43,97 L43,96 L44,95 L44,93 L45,92 L45,90 L47,88 L47,86 L48,85 L48,83 L49,82 L49,79 L50,78 L50,76 L51,75 L51,74 L53,71 L54,71 L55,72 L55,74 L57,77 L57,80 L58,81 L58,82 L59,83 L59,84 L65,90 L65,91 L66,92 L67,92 L69,94 L71,94 L72,95 L76,95 L77,96 L86,96 L89,94 L94,94 L95,95 L101,95 L102,94 L103,94 L104,93 L105,93 L107,91 L108,91 L109,90 L109,85 L107,83 L104,83 L103,84 L105,86 L104,87 L103,87 L102,86 L99,86 L98,87 L96,85 L95,85 L94,84 L90,84 L89,85 L88,85 L87,86 L86,86 L83,88 L78,88 L77,87 L75,87 L74,86 L73,86 L72,85 L71,85 L66,80 L66,79 L65,78 L65,77 L63,74 L63,73 L65,70 L66,71 L68,71 L69,72 L70,72 L73,70 L74,71 L100,71 L101,72 L102,71 L103,71 L104,70 L105,70 L104,69 L104,68 L105,67 L106,68 L105,67 L105,66 L106,65 L106,62 L105,61 L105,54 L103,51 L103,49 L102,48 L102,47 L101,46 L101,45 L98,42 L98,41 L96,39 L96,38 L95,38 L94,37 L93,37 L92,36 L92,35 L91,35 L88,33 L85,33 L84,32 L76,32 L75,33 L73,33 L72,34 L71,34 L70,35 L69,35 L68,36 L67,36 L64,39 L63,39 L63,40 L60,43 L59,43 L58,42 L58,41 L57,40 L57,39 L58,38 L58,35 L59,34 L59,27 L60,26 L60,22 L61,21 L61,15 L62,14 L62,11 L61,10 L61,9 L60,8 L60,7 L59,8 L58,7 L57,7 L54,9 L54,15 L53,16 L53,19 L52,20 L52,29 L51,30 L51,34 L50,35 L50,39 L49,40 L49,46 L48,47 L48,50 L47,51 L47,57 L46,58 L46,60 L45,61 L45,65 L44,66 L44,70 L42,73 L42,76 L41,77 L41,79 L40,80 L40,84 L39,85 L39,86 L38,87 L35,87 L34,86 L34,84 L33,83 L33,81 L32,80 L32,78 L30,75 L30,72 L29,71 L29,68 L28,67 L28,64 L27,63 L27,61 L26,60 L26,56 L25,55 L25,51 L24,50 L24,45 L23,44 L23,40 L22,39 L22,28 L21,27 L21,20 L20,19 L20,15 L19,14 L19,12 L17,9 L16,10 L14,10Z"/><path fill="#594665" fill-rule="evenodd" d="M243,45 L247,45 L248,46 L249,46 L251,48 L252,48 L253,49 L253,50 L256,53 L256,54 L258,57 L258,60 L259,61 L259,76 L258,77 L258,79 L257,80 L257,81 L256,82 L256,83 L254,85 L254,86 L251,89 L250,89 L247,91 L242,91 L241,90 L240,90 L234,84 L234,83 L233,82 L233,81 L231,78 L231,75 L230,74 L230,62 L231,61 L231,58 L232,57 L232,56 L234,53 L233,52 L235,50 L236,50 L240,46 L242,46Z M219,38 L217,40 L217,41 L216,42 L217,43 L216,44 L215,44 L216,45 L214,47 L214,50 L213,51 L213,57 L215,59 L215,60 L217,60 L218,61 L218,77 L217,78 L217,86 L216,87 L216,97 L219,100 L221,100 L222,101 L223,101 L224,100 L227,100 L227,99 L228,98 L229,98 L231,95 L233,97 L234,97 L235,98 L236,98 L239,100 L250,100 L251,99 L253,99 L254,98 L255,98 L257,96 L258,97 L258,98 L260,100 L261,100 L262,101 L267,101 L268,100 L270,100 L272,98 L273,98 L277,92 L277,88 L276,87 L276,85 L275,84 L271,84 L270,85 L269,85 L268,84 L269,83 L269,48 L268,47 L268,45 L269,44 L269,43 L266,40 L265,40 L264,41 L261,41 L260,42 L259,42 L258,41 L257,41 L256,40 L256,39 L255,39 L254,38 L253,38 L250,36 L241,36 L240,37 L237,37 L236,38 L235,38 L232,41 L231,41 L228,44 L227,43 L227,40 L224,37 L223,37 L222,38Z M168,36 L166,38 L165,38 L164,39 L164,42 L165,43 L165,49 L166,50 L166,55 L167,56 L167,60 L168,61 L168,65 L169,66 L169,69 L170,70 L170,72 L171,73 L171,76 L172,77 L172,79 L173,80 L173,82 L175,85 L175,87 L177,90 L177,92 L178,93 L178,94 L179,94 L180,95 L179,96 L182,99 L183,99 L184,100 L187,100 L190,98 L190,97 L192,94 L192,91 L193,90 L193,87 L194,86 L194,82 L195,81 L195,77 L196,76 L196,73 L197,72 L197,68 L198,67 L198,63 L199,62 L199,59 L200,58 L200,54 L201,53 L201,49 L203,47 L205,47 L208,44 L208,41 L206,38 L205,38 L202,36 L198,36 L196,38 L195,38 L195,39 L193,42 L193,45 L192,46 L192,50 L191,51 L191,56 L190,57 L190,60 L189,61 L189,65 L188,66 L188,69 L187,70 L187,74 L186,75 L186,78 L185,79 L185,81 L184,82 L182,79 L182,77 L181,76 L181,74 L180,73 L180,71 L179,70 L179,67 L178,66 L178,63 L177,62 L177,59 L176,58 L176,53 L175,52 L175,48 L174,47 L174,41 L173,40 L173,38 L171,38Z M223,15 L222,16 L221,16 L220,17 L219,17 L219,18 L218,19 L217,19 L217,22 L218,23 L218,24 L219,24 L222,26 L223,26 L227,22 L227,18 L226,17 L225,17Z"/></svg>